<svg version="1.1" id="Layer_1" xmlns="http://www.w3.org/2000/svg" xmlns:xlink="http://www.w3.org/1999/xlink" x="0px" y="0px"
	 width="100%" viewBox="0 0 360 180" enable-background="new 0 0 360 180" xml:space="preserve">
<path fill="#F9B820" opacity="1.000000" stroke="none" 
	d="
M326.698639,1.215633 
	C337.408325,1.000000 347.817566,1.072734 358.224243,0.941504 
	C360.429474,0.913695 361.237061,1.184427 361.079010,3.681966 
	C360.797821,8.124881 361.000000,12.598384 361.000000,17.529547 
	C359.681763,21.167021 356.939453,22.618824 354.053101,24.061806 
	C311.616882,45.277172 269.151581,66.434509 226.747528,87.714157 
	C225.014984,88.583588 222.972733,89.050583 221.759827,90.921494 
	C222.736755,92.969093 224.863358,93.326866 226.565430,94.181335 
	C268.961792,115.464767 311.408234,136.648209 353.841644,157.857727 
	C356.516418,159.194641 359.395996,160.269455 360.787537,163.706543 
	C361.000000,168.626251 360.748108,173.271225 361.089722,177.872101 
	C361.312378,180.870697 360.222778,181.108170 357.676422,181.066330 
	C347.765717,180.903564 337.850708,181.000000 327.468658,181.000000 
	C313.511353,176.079926 301.114288,168.858154 288.312317,162.509064 
	C254.892792,145.934723 221.516998,129.269745 188.246185,112.399162 
	C183.236145,109.858704 178.879639,109.491356 174.045837,112.982246 
	C173.638306,113.431465 173.483734,113.621185 173.060120,114.064835 
	C172.397751,114.618614 171.982040,114.882858 171.204315,115.253098 
	C170.635422,115.464653 170.402206,115.528313 169.815536,115.648071 
	C164.948227,116.187111 161.314499,118.617172 157.441971,121.290100 
	C157.033585,121.697037 156.857315,121.846283 156.373581,122.151901 
	C152.932861,122.849808 150.039261,123.909454 147.484497,126.433090 
	C147.085037,126.824760 146.905289,126.959862 146.419296,127.232246 
	C144.382294,127.635620 142.658844,127.919029 141.180893,129.590973 
	C140.750778,129.957413 140.558273,130.081345 140.039429,130.316650 
	C135.997269,131.055527 132.746521,132.701996 129.546707,135.215302 
	C129.154144,135.623779 128.991241,135.780273 128.543732,136.114716 
	C127.461548,136.610046 126.663361,136.926193 125.696304,137.610809 
	C125.284966,137.967041 125.114174,138.105957 124.669197,138.436737 
	C124.007729,138.863113 123.603386,139.063614 122.859886,139.352600 
	C122.309601,139.521408 122.084106,139.573074 121.515747,139.680450 
	C111.369583,142.862747 102.546623,148.015289 93.433136,153.309677 
	C93.020798,153.720535 92.840408,153.868515 92.347778,154.170654 
	C89.091782,154.794022 86.407448,155.877228 83.810326,157.955017 
	C83.452484,158.392914 83.321671,158.579926 82.949509,159.013031 
	C82.350624,159.546890 81.972549,159.804138 81.269867,160.180649 
	C80.763680,160.419159 80.557640,160.502075 80.041214,160.689148 
	C79.136505,160.983170 78.525238,161.126511 77.726662,161.630890 
	C77.308754,161.958374 77.137886,162.088684 76.696541,162.402466 
	C76.047478,162.812927 75.654007,163.010544 74.932144,163.302521 
	C74.393257,163.462601 74.170143,163.503433 73.606522,163.560242 
	C70.427795,163.908310 67.991837,165.136703 65.579445,167.171890 
	C65.194099,167.575943 65.035912,167.731918 64.600708,168.066559 
	C63.364212,168.657928 62.316322,168.869873 61.219162,169.718140 
	C60.802261,170.040436 60.622353,170.152649 60.149502,170.385330 
	C58.898090,170.865128 57.835640,171.005432 56.829815,172.008942 
	C56.373692,172.300919 56.180035,172.401901 55.676582,172.613266 
	C53.813362,172.831573 52.418533,173.290604 51.127808,174.755920 
	C50.681980,175.093536 50.483105,175.202087 49.953781,175.394058 
	C44.607758,176.291580 40.558842,179.777512 35.268425,180.786957 
	C24.591673,181.000000 14.182430,180.927277 3.775759,181.058517 
	C1.570541,181.086319 0.762936,180.815582 0.920995,178.318039 
	C1.202169,173.875122 1.000000,169.401611 1.000000,164.470459 
	C2.456064,161.683701 4.494853,160.163391 6.959705,158.925034 
	C36.528618,144.069580 66.173019,129.364090 95.720306,114.467438 
	C109.669434,107.434799 123.871773,100.896904 137.554092,93.336884 
	C138.637024,92.738518 140.568604,92.791763 140.349335,91.031761 
	C140.170502,89.596405 138.461456,89.307968 137.307678,88.728203 
	C117.367043,78.708054 97.389908,68.760780 77.429749,58.779587 
	C54.192089,47.159458 30.950613,35.546970 7.711522,23.929710 
	C5.167060,22.657732 2.533440,21.531761 1.212602,18.294092 
	C1.000000,13.373746 1.251856,8.728792 0.910240,4.127903 
	C0.687596,1.129341 1.777210,0.891837 4.323562,0.933658 
	C14.234292,1.096433 24.149279,1.000000 34.531342,1.000000 
	C56.581535,9.820555 76.881157,21.286646 97.772125,31.527527 
	C123.470619,44.125092 149.048737,56.974541 174.550583,69.967529 
	C179.214066,72.343544 183.082809,72.156326 187.678055,69.843452 
	C230.335907,48.372864 273.091156,27.095856 315.779633,5.685781 
	C319.209320,3.965651 322.661255,2.359238 326.698639,1.215633 
z"/>
<path fill="#020101" opacity="1.000000" stroke="none" 
	d="
M1.000000,18.468658 
	C34.640022,34.749336 68.281647,51.495464 101.919281,68.249596 
	C115.314430,74.921402 128.703949,81.604576 142.086517,88.301552 
	C143.520370,89.019089 144.890442,89.864075 147.231476,91.178490 
	C98.207916,115.665611 49.958340,139.766144 1.354381,163.933334 
	C1.000000,115.645775 1.000000,67.291542 1.000000,18.468658 
z"/>
<path fill="#020100" opacity="1.000000" stroke="none" 
	d="
M361.000000,163.531342 
	C336.893677,152.025299 312.773926,140.077606 288.684937,128.068100 
	C265.778168,116.647964 242.902237,105.165901 220.018036,93.700508 
	C218.582047,92.981056 217.192032,92.169861 214.887024,90.914787 
	C263.858398,66.421165 312.089386,42.297859 360.660187,18.087276 
	C361.000000,66.354225 361.000000,114.708458 361.000000,163.531342 
z"/>
<path fill="#037747" opacity="1.000000" stroke="none" 
	d="
M38.882591,1.358700 
	C133.356659,1.000000 227.713318,1.000000 322.534973,1.000000 
	C323.516144,3.661576 321.144104,3.864213 319.703094,4.590169 
	C299.056091,14.992036 278.364410,25.305145 257.690796,35.654285 
	C234.348801,47.339222 210.895096,58.804283 187.697266,70.771469 
	C182.873291,73.260033 178.918808,73.146637 174.132004,70.684631 
	C149.718582,58.127964 125.096046,45.979755 100.549583,33.684330 
	C81.517715,24.151190 62.456928,14.671497 43.418774,5.148635 
	C41.696766,4.287290 39.520893,3.932884 38.882591,1.358700 
z"/>
<path fill="#037747" opacity="1.000000" stroke="none" 
	d="
M54.482643,171.239624 
	C54.921776,170.943954 55.087975,170.864670 55.507523,170.675293 
	C56.976295,170.058884 58.203396,169.587845 59.538689,169.001068 
	C59.577049,168.674332 59.655838,168.598007 59.707924,168.580826 
	C60.976921,168.058609 62.205101,167.587677 63.548019,167.001221 
	C63.593204,166.675125 63.657177,166.603104 63.702801,166.587677 
	C66.937927,165.291962 69.883156,163.466705 73.287186,162.043335 
	C73.424728,161.728470 73.647903,161.555191 73.772659,161.488892 
	C74.470573,161.604706 75.014526,161.517120 75.512543,160.961624 
	C75.486603,160.678345 75.621605,160.571350 75.700882,160.537674 
	C77.003464,160.026062 78.243820,159.601547 79.595451,158.988159 
	C79.664642,158.667343 79.710091,158.607468 79.747276,158.601959 
	C80.378914,158.646637 80.940788,158.518234 81.417404,158.003250 
	C81.351006,157.720032 81.584457,157.535385 81.714157,157.462402 
	C85.279419,156.608612 87.880310,153.838684 91.514313,153.019989 
	C91.585403,152.678589 91.656181,152.604462 91.704865,152.588470 
	C100.374054,148.708817 108.572838,143.992844 117.132668,140.003113 
	C118.492401,139.369354 119.801170,138.678040 121.363312,138.052856 
	C121.438576,137.698456 121.640060,137.541168 121.754257,137.483795 
	C122.454628,137.611496 123.011658,137.515152 123.563080,136.961426 
	C123.574730,136.670700 123.654442,136.595657 123.706604,136.579071 
	C124.977722,136.054657 126.211754,135.592346 127.551727,134.992401 
	C127.594879,134.665344 127.653374,134.597046 127.696350,134.583801 
	C131.759308,133.196320 135.109039,130.320358 139.387970,129.049194 
	C139.445602,128.701202 139.608627,128.574875 139.701813,128.530716 
	C141.649872,127.824463 143.316299,126.664360 145.340805,126.069107 
	C145.361526,125.742455 145.620972,125.541275 145.764420,125.461502 
	C149.357651,124.715492 151.847168,121.772331 155.484985,121.034149 
	C155.559906,120.694038 155.653519,120.608665 155.712433,120.585358 
	C160.325394,118.624603 164.507416,115.870758 169.350128,114.063255 
	C169.422882,113.719444 169.649734,113.546242 169.776489,113.480667 
	C170.476807,113.603844 171.020264,113.517830 171.507980,112.952736 
	C171.473755,112.669975 171.609375,112.562927 171.689148,112.529762 
	C173.471909,111.833069 175.202911,111.164680 176.785507,110.303238 
	C180.065994,108.517593 182.983322,108.950523 186.220230,110.577278 
	C206.685928,120.862511 227.170273,131.111221 247.661957,141.344971 
	C270.684723,152.842758 293.719910,164.315903 316.703461,175.891922 
	C319.034058,177.065796 321.700714,177.818741 323.095642,180.634750 
	C228.644028,181.000000 134.288055,181.000000 39.466042,181.000000 
	C38.612175,177.664749 41.769650,177.991394 43.423473,176.862747 
	C45.140854,175.690704 47.086693,174.806396 49.275421,174.056183 
	C49.366478,173.710693 49.609081,173.520432 49.745026,173.447739 
	C51.719448,173.627640 52.740940,172.037369 54.482643,171.239624 
z"/>
<path fill="#657C17" opacity="1.000000" stroke="none" 
	d="
M38.600006,1.000000 
	C42.133999,5.008287 47.046566,6.101548 51.257622,8.230940 
	C87.924385,26.772121 124.670227,45.156960 161.402557,63.568344 
	C165.862991,65.804047 170.525284,67.674614 174.834885,70.163200 
	C179.238174,72.705894 183.095688,72.293228 187.506256,70.053391 
	C215.671188,55.750305 243.921280,41.614635 272.164581,27.466261 
	C287.630524,19.718653 303.139740,12.057445 318.624054,4.346475 
	C320.100494,3.611227 321.725311,3.083844 322.875061,1.324781 
	C324.066681,1.000000 325.133331,1.000000 326.600006,1.000000 
	C320.403015,5.914160 312.704681,8.774812 305.443848,12.425552 
	C265.571014,32.473560 225.616989,52.360153 185.734497,72.389099 
	C182.675476,73.925339 180.134048,74.322197 176.872818,72.683281 
	C131.195389,49.728367 85.451012,26.906694 39.732430,4.033604 
	C38.251484,3.292685 36.871429,2.350107 35.222172,1.250766 
	C36.066669,1.000000 37.133339,1.000000 38.600006,1.000000 
z"/>
<path fill="#668211" opacity="1.000000" stroke="none" 
	d="
M323.399994,181.000000 
	C317.012421,175.435974 309.200653,173.121979 302.139252,169.544662 
	C265.191681,150.826965 228.055725,132.480865 191.122269,113.735657 
	C184.803574,110.528671 178.978714,108.628662 172.136749,112.565094 
	C176.954483,108.220215 181.846970,107.495308 188.427078,110.844742 
	C232.604279,133.332077 277.022247,155.346283 321.352203,177.533798 
	C323.131439,178.424332 324.810303,179.515457 326.767944,180.756561 
	C325.933319,181.000000 324.866669,181.000000 323.399994,181.000000 
z"/>
<path fill="#668211" opacity="1.000000" stroke="none" 
	d="
M49.028542,173.744278 
	C46.868111,177.239456 42.001377,177.179413 39.139267,180.684021 
	C37.933331,181.000000 36.866661,181.000000 35.399994,181.000000 
	C39.129013,177.768921 43.971363,175.890076 49.028542,173.744278 
z"/>
<path fill="#668211" opacity="1.000000" stroke="none" 
	d="
M121.094177,137.730026 
	C119.269119,140.698883 115.774269,141.576096 112.671349,142.974167 
	C105.862900,146.041809 99.719879,150.486755 92.124748,152.624939 
	C101.029800,146.873627 110.928337,142.393082 121.094177,137.730026 
z"/>
<path fill="#668211" opacity="1.000000" stroke="none" 
	d="
M169.080444,113.743988 
	C165.909622,117.513580 161.058228,118.818878 156.135254,120.614990 
	C159.642868,117.437325 164.286697,115.786652 169.080444,113.743988 
z"/>
<path fill="#668211" opacity="1.000000" stroke="none" 
	d="
M139.099670,128.720505 
	C136.392563,131.798325 132.581024,133.503632 128.109528,134.623871 
	C131.026001,131.900085 134.928925,130.393753 139.099670,128.720505 
z"/>
<path fill="#668211" opacity="1.000000" stroke="none" 
	d="
M73.083694,161.749390 
	C71.299919,164.920197 67.761971,165.559143 64.118347,166.623856 
	C66.316597,164.166382 69.603645,163.106979 73.083694,161.749390 
z"/>
<path fill="#668211" opacity="1.000000" stroke="none" 
	d="
M91.227783,152.704407 
	C89.107635,155.312668 85.973663,156.739426 82.187759,157.494415 
	C84.557983,155.265533 87.686417,153.944290 91.227783,152.704407 
z"/>
<path fill="#668211" opacity="1.000000" stroke="none" 
	d="
M155.207230,120.710953 
	C153.132950,123.365730 149.958328,124.673157 146.245300,125.497803 
	C148.607117,123.286438 151.689560,121.927795 155.207230,120.710953 
z"/>
<path fill="#668211" opacity="1.000000" stroke="none" 
	d="
M145.046478,125.758392 
	C144.424927,127.877831 142.357254,128.099762 140.134033,128.559326 
	C141.072021,126.911888 142.991776,126.507004 145.046478,125.758392 
z"/>
<path fill="#668211" opacity="1.000000" stroke="none" 
	d="
M54.447067,171.009308 
	C53.870106,172.750702 52.522518,173.720474 50.198296,173.492157 
	C51.300163,172.581818 52.719364,171.788574 54.447067,171.009308 
z"/>
<path fill="#668211" opacity="1.000000" stroke="none" 
	d="
M127.276604,134.675934 
	C127.043289,136.132660 125.767197,136.466019 124.090683,136.627319 
	C124.532692,135.438110 125.727463,135.031540 127.276604,134.675934 
z"/>
<path fill="#668211" opacity="1.000000" stroke="none" 
	d="
M79.340843,158.671631 
	C79.032623,160.054489 77.824066,160.507187 76.105927,160.582977 
	C76.573120,159.388245 77.777069,159.000168 79.340843,158.671631 
z"/>
<path fill="#668211" opacity="1.000000" stroke="none" 
	d="
M63.275589,166.684952 
	C63.042271,168.142120 61.763577,168.466431 60.091644,168.628815 
	C60.531311,167.436432 61.726997,167.035400 63.275589,166.684952 
z"/>
<path fill="#668211" opacity="1.000000" stroke="none" 
	d="
M59.258465,168.683350 
	C59.009583,170.109711 57.764088,170.486237 56.087509,170.632446 
	C56.515110,169.422501 57.721569,169.047394 59.258465,168.683350 
z"/>
<path fill="#668211" opacity="1.000000" stroke="none" 
	d="
M123.326347,136.660797 
	C123.177666,136.981110 122.780602,137.291519 122.126007,137.514191 
	C122.271629,137.167923 122.674797,136.909409 123.326347,136.660797 
z"/>
<path fill="#668211" opacity="1.000000" stroke="none" 
	d="
M81.112061,157.717941 
	C81.005829,158.053162 80.660645,158.386292 80.049973,158.657928 
	C80.147354,158.302917 80.510239,158.009384 81.112061,157.717941 
z"/>
<path fill="#668211" opacity="1.000000" stroke="none" 
	d="
M75.252220,160.669327 
	C75.120598,160.987991 74.754593,161.297653 74.143005,161.514954 
	C74.270889,161.168488 74.644363,160.914398 75.252220,160.669327 
z"/>
<path fill="#668211" opacity="1.000000" stroke="none" 
	d="
M171.241516,112.662170 
	C171.112427,112.979294 170.751099,113.288620 170.146515,113.506516 
	C170.271927,113.161514 170.640610,112.907944 171.241516,112.662170 
z"/>
</svg>